<mxfile host="app.diagrams.net" agent="Mozilla/5.0 (Macintosh; Intel Mac OS X 10_15_7) AppleWebKit/537.36 (KHTML, like Gecko) Chrome/129.0.0.0 Safari/537.36" version="24.7.17">
  <diagram id="C5RBs43oDa-KdzZeNtuy" name="Page-1">
    <mxGraphModel dx="1811" dy="659" grid="1" gridSize="10" guides="1" tooltips="1" connect="1" arrows="1" fold="1" page="1" pageScale="1" pageWidth="827" pageHeight="1169" math="0" shadow="0">
      <root>
        <mxCell id="WIyWlLk6GJQsqaUBKTNV-0" />
        <mxCell id="WIyWlLk6GJQsqaUBKTNV-1" parent="WIyWlLk6GJQsqaUBKTNV-0" />
        <mxCell id="6StHjTjS38RwtOLFPy80-15" style="edgeStyle=orthogonalEdgeStyle;rounded=0;orthogonalLoop=1;jettySize=auto;html=1;entryX=0.5;entryY=0;entryDx=0;entryDy=0;" edge="1" parent="WIyWlLk6GJQsqaUBKTNV-1" source="WIyWlLk6GJQsqaUBKTNV-3" target="6StHjTjS38RwtOLFPy80-2">
          <mxGeometry relative="1" as="geometry" />
        </mxCell>
        <mxCell id="6StHjTjS38RwtOLFPy80-32" value="当前的实时压裂参数数据包括压力值，微地震图等多模态" style="edgeLabel;html=1;align=center;verticalAlign=middle;resizable=0;points=[];" vertex="1" connectable="0" parent="6StHjTjS38RwtOLFPy80-15">
          <mxGeometry x="-0.3357" y="-2" relative="1" as="geometry">
            <mxPoint x="2" y="13" as="offset" />
          </mxGeometry>
        </mxCell>
        <mxCell id="WIyWlLk6GJQsqaUBKTNV-3" value="&lt;p style=&quot;margin: 0pt 0pt 0.0001pt; text-align: justify; font-family: &amp;quot;Times New Roman&amp;quot;; font-size: 14pt;&quot; class=&quot;MsoNormal&quot;&gt;&lt;span style=&quot;font-family: 宋体; font-size: 12pt;&quot;&gt;数据采集与监测模块&lt;/span&gt;&lt;/p&gt;" style="rounded=1;whiteSpace=wrap;html=1;fontSize=12;glass=0;strokeWidth=1;shadow=0;" parent="WIyWlLk6GJQsqaUBKTNV-1" vertex="1">
          <mxGeometry x="160" y="80" width="160" height="40" as="geometry" />
        </mxCell>
        <mxCell id="6StHjTjS38RwtOLFPy80-25" style="edgeStyle=orthogonalEdgeStyle;rounded=0;orthogonalLoop=1;jettySize=auto;html=1;exitX=0.5;exitY=0;exitDx=0;exitDy=0;" edge="1" parent="WIyWlLk6GJQsqaUBKTNV-1" source="6StHjTjS38RwtOLFPy80-0" target="6StHjTjS38RwtOLFPy80-26">
          <mxGeometry relative="1" as="geometry">
            <mxPoint x="30" y="220" as="targetPoint" />
          </mxGeometry>
        </mxCell>
        <mxCell id="6StHjTjS38RwtOLFPy80-37" value="效果反馈" style="edgeLabel;html=1;align=center;verticalAlign=middle;resizable=0;points=[];" vertex="1" connectable="0" parent="6StHjTjS38RwtOLFPy80-25">
          <mxGeometry x="-0.0125" y="-4" relative="1" as="geometry">
            <mxPoint y="1" as="offset" />
          </mxGeometry>
        </mxCell>
        <mxCell id="6StHjTjS38RwtOLFPy80-0" value="&lt;p style=&quot;margin: 0pt 0pt 0.0001pt; text-align: justify; font-family: &amp;quot;Times New Roman&amp;quot;; font-size: 14pt;&quot; class=&quot;MsoNormal&quot;&gt;&lt;span style=&quot;font-family: 宋体; font-size: 12pt;&quot;&gt;反馈监测模块&lt;/span&gt;&lt;/p&gt;" style="rounded=1;whiteSpace=wrap;html=1;fontSize=12;glass=0;strokeWidth=1;shadow=0;" vertex="1" parent="WIyWlLk6GJQsqaUBKTNV-1">
          <mxGeometry x="-65" y="340" width="160" height="40" as="geometry" />
        </mxCell>
        <mxCell id="6StHjTjS38RwtOLFPy80-29" style="edgeStyle=orthogonalEdgeStyle;rounded=0;orthogonalLoop=1;jettySize=auto;html=1;entryX=0.5;entryY=1;entryDx=0;entryDy=0;" edge="1" parent="WIyWlLk6GJQsqaUBKTNV-1" source="6StHjTjS38RwtOLFPy80-1" target="6StHjTjS38RwtOLFPy80-0">
          <mxGeometry relative="1" as="geometry" />
        </mxCell>
        <mxCell id="6StHjTjS38RwtOLFPy80-35" value="参数调优指令" style="edgeLabel;html=1;align=center;verticalAlign=middle;resizable=0;points=[];" vertex="1" connectable="0" parent="6StHjTjS38RwtOLFPy80-29">
          <mxGeometry x="0.1364" y="-1" relative="1" as="geometry">
            <mxPoint as="offset" />
          </mxGeometry>
        </mxCell>
        <mxCell id="6StHjTjS38RwtOLFPy80-1" value="&lt;p style=&quot;margin: 0pt 0pt 0.0001pt; text-align: justify; font-family: &amp;quot;Times New Roman&amp;quot;; font-size: 14pt;&quot; class=&quot;MsoNormal&quot;&gt;&lt;span style=&quot;font-family: 宋体; font-size: 12pt;&quot;&gt;实时调控模块&lt;/span&gt;&lt;/p&gt;" style="rounded=1;whiteSpace=wrap;html=1;fontSize=12;glass=0;strokeWidth=1;shadow=0;" vertex="1" parent="WIyWlLk6GJQsqaUBKTNV-1">
          <mxGeometry x="160" y="450" width="160" height="40" as="geometry" />
        </mxCell>
        <mxCell id="6StHjTjS38RwtOLFPy80-20" style="edgeStyle=orthogonalEdgeStyle;rounded=0;orthogonalLoop=1;jettySize=auto;html=1;entryX=0;entryY=0.5;entryDx=0;entryDy=0;" edge="1" parent="WIyWlLk6GJQsqaUBKTNV-1" source="6StHjTjS38RwtOLFPy80-2" target="6StHjTjS38RwtOLFPy80-3">
          <mxGeometry relative="1" as="geometry">
            <Array as="points">
              <mxPoint x="240" y="360" />
            </Array>
          </mxGeometry>
        </mxCell>
        <mxCell id="6StHjTjS38RwtOLFPy80-30" value="原始prompt" style="edgeLabel;html=1;align=center;verticalAlign=middle;resizable=0;points=[];" vertex="1" connectable="0" parent="6StHjTjS38RwtOLFPy80-20">
          <mxGeometry x="-0.0083" y="2" relative="1" as="geometry">
            <mxPoint y="1" as="offset" />
          </mxGeometry>
        </mxCell>
        <mxCell id="6StHjTjS38RwtOLFPy80-23" style="edgeStyle=orthogonalEdgeStyle;rounded=0;orthogonalLoop=1;jettySize=auto;html=1;exitX=0.25;exitY=1;exitDx=0;exitDy=0;entryX=0.25;entryY=0;entryDx=0;entryDy=0;" edge="1" parent="WIyWlLk6GJQsqaUBKTNV-1" source="6StHjTjS38RwtOLFPy80-2" target="6StHjTjS38RwtOLFPy80-1">
          <mxGeometry relative="1" as="geometry" />
        </mxCell>
        <mxCell id="6StHjTjS38RwtOLFPy80-31" value="生成的参数优化意见" style="edgeLabel;html=1;align=center;verticalAlign=middle;resizable=0;points=[];" vertex="1" connectable="0" parent="6StHjTjS38RwtOLFPy80-23">
          <mxGeometry x="-0.0099" y="-4" relative="1" as="geometry">
            <mxPoint x="-2" y="-1" as="offset" />
          </mxGeometry>
        </mxCell>
        <mxCell id="6StHjTjS38RwtOLFPy80-2" value="&lt;p style=&quot;margin: 0pt 0pt 0.0001pt; text-align: justify; font-family: &amp;quot;Times New Roman&amp;quot;; font-size: 14pt;&quot; class=&quot;MsoNormal&quot;&gt;&lt;span style=&quot;font-family: 宋体; font-size: 12pt;&quot;&gt;大模型微调与决策模块&lt;/span&gt;&lt;/p&gt;" style="rounded=1;whiteSpace=wrap;html=1;fontSize=12;glass=0;strokeWidth=1;shadow=0;" vertex="1" parent="WIyWlLk6GJQsqaUBKTNV-1">
          <mxGeometry x="157" y="260" width="166" height="40" as="geometry" />
        </mxCell>
        <mxCell id="6StHjTjS38RwtOLFPy80-22" style="edgeStyle=orthogonalEdgeStyle;rounded=0;orthogonalLoop=1;jettySize=auto;html=1;exitX=0.25;exitY=0;exitDx=0;exitDy=0;entryX=0.75;entryY=0;entryDx=0;entryDy=0;" edge="1" parent="WIyWlLk6GJQsqaUBKTNV-1" source="6StHjTjS38RwtOLFPy80-3" target="6StHjTjS38RwtOLFPy80-2">
          <mxGeometry relative="1" as="geometry">
            <mxPoint x="310" y="180" as="targetPoint" />
          </mxGeometry>
        </mxCell>
        <mxCell id="6StHjTjS38RwtOLFPy80-34" value="新生成的prompt" style="edgeLabel;html=1;align=center;verticalAlign=middle;resizable=0;points=[];" vertex="1" connectable="0" parent="6StHjTjS38RwtOLFPy80-22">
          <mxGeometry y="1" relative="1" as="geometry">
            <mxPoint x="1" as="offset" />
          </mxGeometry>
        </mxCell>
        <mxCell id="6StHjTjS38RwtOLFPy80-3" value="&lt;p style=&quot;margin: 0pt 0pt 0.0001pt; text-align: justify; font-family: &amp;quot;Times New Roman&amp;quot;; font-size: 14pt;&quot; class=&quot;MsoNormal&quot;&gt;&lt;span style=&quot;font-family: 宋体; font-size: 12pt;&quot;&gt;RAG检索与Prompt优化模块&lt;/span&gt;&lt;/p&gt;" style="rounded=1;whiteSpace=wrap;html=1;fontSize=12;glass=0;strokeWidth=1;shadow=0;" vertex="1" parent="WIyWlLk6GJQsqaUBKTNV-1">
          <mxGeometry x="420" y="340" width="210" height="40" as="geometry" />
        </mxCell>
        <mxCell id="6StHjTjS38RwtOLFPy80-17" style="edgeStyle=orthogonalEdgeStyle;rounded=0;orthogonalLoop=1;jettySize=auto;html=1;exitX=0.5;exitY=1;exitDx=0;exitDy=0;entryX=0.5;entryY=0;entryDx=0;entryDy=0;" edge="1" parent="WIyWlLk6GJQsqaUBKTNV-1" source="6StHjTjS38RwtOLFPy80-6" target="6StHjTjS38RwtOLFPy80-8">
          <mxGeometry relative="1" as="geometry" />
        </mxCell>
        <mxCell id="6StHjTjS38RwtOLFPy80-6" value="外部数据库" style="ellipse;whiteSpace=wrap;html=1;" vertex="1" parent="WIyWlLk6GJQsqaUBKTNV-1">
          <mxGeometry x="495" y="10" width="80" height="80" as="geometry" />
        </mxCell>
        <mxCell id="6StHjTjS38RwtOLFPy80-8" value="&lt;font style=&quot;font-size: 9px;&quot;&gt;是否与当前压裂场景匹配&lt;/font&gt;" style="rhombus;whiteSpace=wrap;html=1;" vertex="1" parent="WIyWlLk6GJQsqaUBKTNV-1">
          <mxGeometry x="475" y="140" width="120" height="100" as="geometry" />
        </mxCell>
        <mxCell id="6StHjTjS38RwtOLFPy80-18" style="edgeStyle=orthogonalEdgeStyle;rounded=0;orthogonalLoop=1;jettySize=auto;html=1;exitX=0.5;exitY=1;exitDx=0;exitDy=0;entryX=0.548;entryY=-0.037;entryDx=0;entryDy=0;entryPerimeter=0;" edge="1" parent="WIyWlLk6GJQsqaUBKTNV-1" source="6StHjTjS38RwtOLFPy80-8" target="6StHjTjS38RwtOLFPy80-3">
          <mxGeometry relative="1" as="geometry" />
        </mxCell>
        <mxCell id="6StHjTjS38RwtOLFPy80-19" value="yes" style="edgeLabel;html=1;align=center;verticalAlign=middle;resizable=0;points=[];" vertex="1" connectable="0" parent="6StHjTjS38RwtOLFPy80-18">
          <mxGeometry x="-0.3815" relative="1" as="geometry">
            <mxPoint y="1" as="offset" />
          </mxGeometry>
        </mxCell>
        <mxCell id="6StHjTjS38RwtOLFPy80-27" style="edgeStyle=orthogonalEdgeStyle;rounded=0;orthogonalLoop=1;jettySize=auto;html=1;entryX=0;entryY=0.5;entryDx=0;entryDy=0;" edge="1" parent="WIyWlLk6GJQsqaUBKTNV-1" source="6StHjTjS38RwtOLFPy80-26" target="WIyWlLk6GJQsqaUBKTNV-3">
          <mxGeometry relative="1" as="geometry">
            <Array as="points">
              <mxPoint x="30" y="100" />
            </Array>
          </mxGeometry>
        </mxCell>
        <mxCell id="6StHjTjS38RwtOLFPy80-39" value="yes" style="edgeLabel;html=1;align=center;verticalAlign=middle;resizable=0;points=[];" vertex="1" connectable="0" parent="6StHjTjS38RwtOLFPy80-27">
          <mxGeometry x="0.2938" y="2" relative="1" as="geometry">
            <mxPoint y="1" as="offset" />
          </mxGeometry>
        </mxCell>
        <mxCell id="6StHjTjS38RwtOLFPy80-33" style="edgeStyle=orthogonalEdgeStyle;rounded=0;orthogonalLoop=1;jettySize=auto;html=1;entryX=0;entryY=0;entryDx=0;entryDy=0;" edge="1" parent="WIyWlLk6GJQsqaUBKTNV-1" source="6StHjTjS38RwtOLFPy80-26" target="6StHjTjS38RwtOLFPy80-2">
          <mxGeometry relative="1" as="geometry" />
        </mxCell>
        <mxCell id="6StHjTjS38RwtOLFPy80-38" value="no" style="edgeLabel;html=1;align=center;verticalAlign=middle;resizable=0;points=[];" vertex="1" connectable="0" parent="6StHjTjS38RwtOLFPy80-33">
          <mxGeometry x="0.0394" y="-3" relative="1" as="geometry">
            <mxPoint y="1" as="offset" />
          </mxGeometry>
        </mxCell>
        <mxCell id="6StHjTjS38RwtOLFPy80-26" value="是否达到预期效果" style="rhombus;whiteSpace=wrap;html=1;" vertex="1" parent="WIyWlLk6GJQsqaUBKTNV-1">
          <mxGeometry x="-40" y="180" width="110" height="80" as="geometry" />
        </mxCell>
      </root>
    </mxGraphModel>
  </diagram>
</mxfile>
